<?xml version="1.0" encoding="UTF-8" standalone="no"?>
<!DOCTYPE svg PUBLIC "-//W3C//DTD SVG 1.1//EN" "http://www.w3.org/Graphics/SVG/1.1/DTD/svg11.dtd">
<svg width="100%" height="100%" viewBox="0 0 256 256" version="1.1" xmlns="http://www.w3.org/2000/svg" xmlns:xlink="http://www.w3.org/1999/xlink" xml:space="preserve" xmlns:serif="http://www.serif.com/" style="fill-rule:evenodd;clip-rule:evenodd;stroke-linecap:round;stroke-linejoin:round;stroke-miterlimit:1.5;">
    <g transform="matrix(1,0,0,1,-1458,-3500.24)">
        <g transform="matrix(1,0,0,1,-2.27374e-13,6999.21)">
            <g transform="matrix(0.167931,0,0,0.280597,1234.2,-5077.9)">
                <rect x="1332.71" y="5627.02" width="1524.43" height="912.341" style="fill:none;"/>
            </g>
        </g>
        <g transform="matrix(1,0,0,1,-2.27374e-13,6999.21)">
            <g transform="matrix(0.902493,0.630911,-0.110644,0.912877,-228.228,-10323.3)">
                <path d="M2799,5580L2685.34,5787.93" style="fill:none;stroke:black;stroke-width:6.79px;"/>
            </g>
        </g>
        <g transform="matrix(1,0,0,1,-2.27374e-13,6999.21)">
            <g transform="matrix(0.338383,0,0,0.338383,-2866.87,-3749.4)">
                <circle cx="12980.8" cy="1294.19" r="131.988" style="fill:none;stroke:black;stroke-width:24.63px;stroke-linejoin:miter;"/>
            </g>
        </g>
        <g transform="matrix(1,0,0,1,-2.27374e-13,6999.21)">
            <g transform="matrix(1.34051,0,0,1.34051,819.353,-10173.6)">
                <circle cx="548.685" cy="5093.68" r="15.162" style="fill:rgb(0,255,127);stroke:black;stroke-width:6.22px;"/>
            </g>
        </g>
    </g>
</svg>
